<svg width="1867" height="1048" viewBox="0 0 1867 1048" fill="none" xmlns="http://www.w3.org/2000/svg">
<path d="M134 261.5C239.5 227 365.737 263.657 415 376L305 419C269 342 142.082 346.401 134 419C152.763 447.598 180.015 458.482 256 469.5C339.391 483.673 376.575 503.323 415 572.5C420.993 627.89 418.524 658.806 395.5 713.5C354.6 755.571 329.555 777.503 256 794C205.878 798.786 179.359 795.791 134 783.5C55.5238 751.853 29.7854 723.348 0 663L110 621.5C144.464 677.575 175.69 691.077 256 678C296 664.5 307 613.86 256 599C205 584.14 134 572.5 134 572.5C31.8562 532.678 7.0541 497.964 7.50001 419C14.9021 332.072 44.7248 298.875 134 261.5Z" fill="black"/>
<path d="M449 780.5V264.5H549L773.5 551.5V264.5L897 392.5V780.5H797.5L568 480V780.5H449Z" fill="black"/>
<path d="M946 777.5V385L1065 261.5V467L1261.5 261.5H1408.5L1191.5 495L1408.5 777.5H1261.5L1103.5 577L1065 620V777.5H946Z" fill="black"/>
<path fill-rule="evenodd" clip-rule="evenodd" d="M1411.5 264.5V779H1530.5V620H1621.5L1713.5 779H1867L1731.5 584.5C1892.56 473.704 1812 279.5 1666 264.5H1411.5ZM1535.5 500.5V377.5H1640.5C1669.5 377.5 1747.04 454.264 1640.5 500.5H1535.5Z" fill="black"/>
<path d="M1082.5 149L914.5 313.5L750 149C732.291 107.8 730.86 84.7003 750 43.5C770.828 13.0137 786.766 0.553806 836.5 1.50004C877.993 1.14552 894.191 13.5565 914.5 51C930.84 22.3878 943.747 10.5532 977.5 1.50004C1031.44 -3.52742 1053.91 6.53745 1082.5 43.5C1099.14 82.1192 1103.64 104.521 1082.5 149Z" fill="black"/>
<path d="M530 1035.5V859H577V996H648.5V1035.5H530Z" fill="black"/>
<path fill-rule="evenodd" clip-rule="evenodd" d="M742.857 859C698.277 858.983 679.557 871.113 656.357 912.5C645.589 942.178 644.846 958.242 656.357 985.5C675.031 1026.23 697.16 1034.81 742.857 1042.5C790.401 1034.95 807.362 1020.91 827.357 985.5C835.424 956.992 833.918 941.008 827.357 912.5C802.425 868.246 782.594 860.381 742.857 859ZM695.5 949.5C700 916 716.869 906.592 741.5 903.5C766.131 900.408 792.295 926.016 786.5 953C780.705 979.984 773.05 992.738 737 994.5C713.5 993 694.456 981.672 695.5 949.5Z" fill="black"/>
<path d="M924 1047.5L833.5 859H884L924 948L958.5 859H1008L924 1047.5Z" fill="black"/>
<path d="M1021 1035.5V859H1143V901.5H1069V926H1135V965H1069V991.5H1143V1035.5H1021Z" fill="black"/>
<path fill-rule="evenodd" clip-rule="evenodd" d="M1156 857V1034.5H1198.5V993H1231L1256.5 1034.5H1309L1272 973C1323.77 922.514 1297.5 872.5 1256.5 857H1156ZM1198.5 945.5V897H1237.5C1238.76 898.411 1240.06 899.768 1241.35 901.108C1251.26 911.396 1260.21 920.681 1237.5 945.5H1198.5Z" fill="black"/>
</svg>
